<?xml version="1.0" encoding="utf-8" standalone="no"?>
<!DOCTYPE svg PUBLIC "-//W3C//DTD SVG 1.1//EN"
  "http://www.w3.org/Graphics/SVG/1.1/DTD/svg11.dtd">
<svg xmlns:xlink="http://www.w3.org/1999/xlink" width="864pt" height="720pt" viewBox="0 0 864 720" xmlns="http://www.w3.org/2000/svg" version="1.1">
 <metadata>
  <rdf:RDF xmlns:dc="http://purl.org/dc/elements/1.1/" xmlns:cc="http://creativecommons.org/ns#" xmlns:rdf="http://www.w3.org/1999/02/22-rdf-syntax-ns#">
   <cc:Work>
    <dc:type rdf:resource="http://purl.org/dc/dcmitype/StillImage"/>
    <dc:date>2022-10-12T15:12:05.101763</dc:date>
    <dc:format>image/svg+xml</dc:format>
    <dc:creator>
     <cc:Agent>
      <dc:title>Matplotlib v3.6.1, https://matplotlib.org/</dc:title>
     </cc:Agent>
    </dc:creator>
   </cc:Work>
  </rdf:RDF>
 </metadata>
 <defs>
  <style type="text/css">*{stroke-linejoin: round; stroke-linecap: butt}</style>
 </defs>
 <g id="figure_1">
  <g id="patch_1">
   <path d="M 0 720 
L 864 720 
L 864 0 
L 0 0 
z
" style="fill: #ffffff"/>
  </g>
  <g id="axes_1">
   <g id="patch_2">
    <path d="M 165.6 640.8 
L 720 640.8 
L 720 86.4 
L 165.6 86.4 
z
" style="fill: #ffffff"/>
   </g>
   <g id="patch_3">
    <path d="M 652.8 363.6 
L 486.606281 197.406281 
" clip-path="url(#pc6dc0ce064)" style="fill: none; stroke: #444444; stroke-width: 2; stroke-linejoin: miter"/>
   </g>
   <g id="patch_4">
    <path d="M 472.498485 183.298485 
L 479.967656 204.044906 
L 493.244906 190.767656 
z
" clip-path="url(#pc6dc0ce064)" style="fill: #444444"/>
   </g>
   <g id="patch_5">
    <path d="M 652.8 363.6 
L 294.751437 363.6 
" clip-path="url(#pc6dc0ce064)" style="fill: none; stroke: #444444; stroke-width: 2; stroke-linejoin: miter"/>
   </g>
   <g id="patch_6">
    <path d="M 274.8 363.6 
L 294.751437 372.988433 
L 294.751437 354.211567 
z
" clip-path="url(#pc6dc0ce064)" style="fill: #444444"/>
   </g>
   <g id="patch_7">
    <path d="M 652.8 363.6 
L 486.606281 529.793719 
" clip-path="url(#pc6dc0ce064)" style="fill: none; stroke: #444444; stroke-width: 2; stroke-linejoin: miter"/>
   </g>
   <g id="patch_8">
    <path d="M 472.498485 543.901515 
L 493.244906 536.432344 
L 479.967656 523.155094 
z
" clip-path="url(#pc6dc0ce064)" style="fill: #444444"/>
   </g>
   <g id="patch_9">
    <path d="M 518.847727 198.147727 
C 518.847727 194.011185 518.032919 189.914866 516.449932 186.093199 
C 514.866946 182.271533 512.546568 178.798841 509.621591 175.873864 
C 506.696614 172.948887 503.223922 170.628508 499.402255 169.045522 
C 495.580589 167.462536 491.484269 166.647727 487.347727 166.647727 
C 483.211185 166.647727 479.114866 167.462536 475.293199 169.045522 
C 471.471533 170.628508 467.998841 172.948887 465.073864 175.873864 
C 462.148887 178.798841 459.828508 182.271533 458.245522 186.093199 
C 456.662536 189.914866 455.847727 194.011185 455.847727 198.147727 
C 455.847727 202.284269 456.662536 206.380589 458.245522 210.202255 
C 459.828508 214.023922 462.148887 217.496614 465.073864 220.421591 
C 467.998841 223.346568 471.471533 225.666946 475.293199 227.249932 
C 479.114866 228.832919 483.211185 229.647727 487.347727 229.647727 
C 491.484269 229.647727 495.580589 228.832919 499.402255 227.249932 
C 503.223922 225.666946 506.696614 223.346568 509.621591 220.421591 
C 512.546568 217.496614 514.866946 214.023922 516.449932 210.202255 
C 518.032919 206.380589 518.847727 202.284269 518.847727 198.147727 
" clip-path="url(#pc6dc0ce064)" style="fill: none; stroke: #444444; stroke-width: 2; stroke-linejoin: miter"/>
   </g>
   <g id="patch_10">
    <path d="M 442.8 153.6 
L 276.606281 319.793719 
" clip-path="url(#pc6dc0ce064)" style="fill: none; stroke: #444444; stroke-width: 2; stroke-linejoin: miter"/>
   </g>
   <g id="patch_11">
    <path d="M 262.498485 333.901515 
L 283.244906 326.432344 
L 269.967656 313.155094 
z
" clip-path="url(#pc6dc0ce064)" style="fill: #444444"/>
   </g>
   <g id="patch_12">
    <path d="M 442.8 153.6 
L 442.8 511.648563 
" clip-path="url(#pc6dc0ce064)" style="fill: none; stroke: #444444; stroke-width: 2; stroke-linejoin: miter"/>
   </g>
   <g id="patch_13">
    <path d="M 442.8 531.6 
L 452.188433 511.648563 
L 433.411567 511.648563 
z
" clip-path="url(#pc6dc0ce064)" style="fill: #444444"/>
   </g>
   <g id="patch_14">
    <path d="M 308.847727 408.147727 
C 308.847727 404.011185 308.032919 399.914866 306.449932 396.093199 
C 304.866946 392.271533 302.546568 388.798841 299.621591 385.873864 
C 296.696614 382.948887 293.223922 380.628508 289.402255 379.045522 
C 285.580589 377.462536 281.484269 376.647727 277.347727 376.647727 
C 273.211185 376.647727 269.114866 377.462536 265.293199 379.045522 
C 261.471533 380.628508 257.998841 382.948887 255.073864 385.873864 
C 252.148887 388.798841 249.828508 392.271533 248.245522 396.093199 
C 246.662536 399.914866 245.847727 404.011185 245.847727 408.147727 
C 245.847727 412.284269 246.662536 416.380589 248.245522 420.202255 
C 249.828508 424.023922 252.148887 427.496614 255.073864 430.421591 
C 257.998841 433.346568 261.471533 435.666946 265.293199 437.249932 
C 269.114866 438.832919 273.211185 439.647727 277.347727 439.647727 
C 281.484269 439.647727 285.580589 438.832919 289.402255 437.249932 
C 293.223922 435.666946 296.696614 433.346568 299.621591 430.421591 
C 302.546568 427.496614 304.866946 424.023922 306.449932 420.202255 
C 308.032919 416.380589 308.847727 412.284269 308.847727 408.147727 
" clip-path="url(#pc6dc0ce064)" style="fill: none; stroke: #444444; stroke-width: 2; stroke-linejoin: miter"/>
   </g>
   <g id="patch_15">
    <path d="M 232.8 363.6 
L 398.993719 529.793719 
" clip-path="url(#pc6dc0ce064)" style="fill: none; stroke: #444444; stroke-width: 2; stroke-linejoin: miter"/>
   </g>
   <g id="patch_16">
    <path d="M 413.101515 543.901515 
L 405.632344 523.155094 
L 392.355094 536.432344 
z
" clip-path="url(#pc6dc0ce064)" style="fill: #444444"/>
   </g>
   <g id="matplotlib.axis_1"/>
   <g id="matplotlib.axis_2"/>
   <g id="patch_17">
    <path d="M 652.8 405.6 
C 663.93853 405.6 674.622355 401.174615 682.498485 393.298485 
C 690.374615 385.422355 694.8 374.73853 694.8 363.6 
C 694.8 352.46147 690.374615 341.777645 682.498485 333.901515 
C 674.622355 326.025385 663.93853 321.6 652.8 321.6 
C 641.66147 321.6 630.977645 326.025385 623.101515 333.901515 
C 615.225385 341.777645 610.8 352.46147 610.8 363.6 
C 610.8 374.73853 615.225385 385.422355 623.101515 393.298485 
C 630.977645 401.174615 641.66147 405.6 652.8 405.6 
z
" clip-path="url(#pc6dc0ce064)" style="fill: #4682b4; stroke: #000000; stroke-linejoin: miter"/>
   </g>
   <g id="patch_18">
    <path d="M 442.8 195.6 
C 453.93853 195.6 464.622355 191.174615 472.498485 183.298485 
C 480.374615 175.422355 484.8 164.73853 484.8 153.6 
C 484.8 142.46147 480.374615 131.777645 472.498485 123.901515 
C 464.622355 116.025385 453.93853 111.6 442.8 111.6 
C 431.66147 111.6 420.977645 116.025385 413.101515 123.901515 
C 405.225385 131.777645 400.8 142.46147 400.8 153.6 
C 400.8 164.73853 405.225385 175.422355 413.101515 183.298485 
C 420.977645 191.174615 431.66147 195.6 442.8 195.6 
z
" clip-path="url(#pc6dc0ce064)" style="fill: #add8e6; stroke: #000000; stroke-linejoin: miter"/>
   </g>
   <g id="patch_19">
    <path d="M 232.8 405.6 
C 243.93853 405.6 254.622355 401.174615 262.498485 393.298485 
C 270.374615 385.422355 274.8 374.73853 274.8 363.6 
C 274.8 352.46147 270.374615 341.777645 262.498485 333.901515 
C 254.622355 326.025385 243.93853 321.6 232.8 321.6 
C 221.66147 321.6 210.977645 326.025385 203.101515 333.901515 
C 195.225385 341.777645 190.8 352.46147 190.8 363.6 
C 190.8 374.73853 195.225385 385.422355 203.101515 393.298485 
C 210.977645 401.174615 221.66147 405.6 232.8 405.6 
z
" clip-path="url(#pc6dc0ce064)" style="fill: #add8e6; stroke: #000000; stroke-linejoin: miter"/>
   </g>
   <g id="patch_20">
    <path d="M 442.8 615.6 
C 453.93853 615.6 464.622355 611.174615 472.498485 603.298485 
C 480.374615 595.422355 484.8 584.73853 484.8 573.6 
C 484.8 562.46147 480.374615 551.777645 472.498485 543.901515 
C 464.622355 536.025385 453.93853 531.6 442.8 531.6 
C 431.66147 531.6 420.977645 536.025385 413.101515 543.901515 
C 405.225385 551.777645 400.8 562.46147 400.8 573.6 
C 400.8 584.73853 405.225385 595.422355 413.101515 603.298485 
C 420.977645 611.174615 431.66147 615.6 442.8 615.6 
z
" clip-path="url(#pc6dc0ce064)" style="fill: #add8e6; stroke: #000000; stroke-width: 5; stroke-linejoin: miter"/>
   </g>
   <g id="text_1">
    <!-- q0 -->
    <g transform="translate(640.089062 369.11875) scale(0.2 -0.2)">
     <defs>
      <path id="DejaVuSans-71" d="M 947 1747 
Q 947 1113 1208 752 
Q 1469 391 1925 391 
Q 2381 391 2643 752 
Q 2906 1113 2906 1747 
Q 2906 2381 2643 2742 
Q 2381 3103 1925 3103 
Q 1469 3103 1208 2742 
Q 947 2381 947 1747 
z
M 2906 525 
Q 2725 213 2448 61 
Q 2172 -91 1784 -91 
Q 1150 -91 751 415 
Q 353 922 353 1747 
Q 353 2572 751 3078 
Q 1150 3584 1784 3584 
Q 2172 3584 2448 3432 
Q 2725 3281 2906 2969 
L 2906 3500 
L 3481 3500 
L 3481 -1331 
L 2906 -1331 
L 2906 525 
z
" transform="scale(0.015625)"/>
      <path id="DejaVuSans-30" d="M 2034 4250 
Q 1547 4250 1301 3770 
Q 1056 3291 1056 2328 
Q 1056 1369 1301 889 
Q 1547 409 2034 409 
Q 2525 409 2770 889 
Q 3016 1369 3016 2328 
Q 3016 3291 2770 3770 
Q 2525 4250 2034 4250 
z
M 2034 4750 
Q 2819 4750 3233 4129 
Q 3647 3509 3647 2328 
Q 3647 1150 3233 529 
Q 2819 -91 2034 -91 
Q 1250 -91 836 529 
Q 422 1150 422 2328 
Q 422 3509 836 4129 
Q 1250 4750 2034 4750 
z
" transform="scale(0.015625)"/>
     </defs>
     <use xlink:href="#DejaVuSans-71"/>
     <use xlink:href="#DejaVuSans-30" x="63.476562"/>
    </g>
   </g>
   <g id="text_2">
    <!-- q1 -->
    <g transform="translate(430.089062 159.11875) scale(0.2 -0.2)">
     <defs>
      <path id="DejaVuSans-31" d="M 794 531 
L 1825 531 
L 1825 4091 
L 703 3866 
L 703 4441 
L 1819 4666 
L 2450 4666 
L 2450 531 
L 3481 531 
L 3481 0 
L 794 0 
L 794 531 
z
" transform="scale(0.015625)"/>
     </defs>
     <use xlink:href="#DejaVuSans-71"/>
     <use xlink:href="#DejaVuSans-31" x="63.476562"/>
    </g>
   </g>
   <g id="text_3">
    <!-- q2 -->
    <g transform="translate(220.089062 369.11875) scale(0.2 -0.2)">
     <defs>
      <path id="DejaVuSans-32" d="M 1228 531 
L 3431 531 
L 3431 0 
L 469 0 
L 469 531 
Q 828 903 1448 1529 
Q 2069 2156 2228 2338 
Q 2531 2678 2651 2914 
Q 2772 3150 2772 3378 
Q 2772 3750 2511 3984 
Q 2250 4219 1831 4219 
Q 1534 4219 1204 4116 
Q 875 4013 500 3803 
L 500 4441 
Q 881 4594 1212 4672 
Q 1544 4750 1819 4750 
Q 2544 4750 2975 4387 
Q 3406 4025 3406 3419 
Q 3406 3131 3298 2873 
Q 3191 2616 2906 2266 
Q 2828 2175 2409 1742 
Q 1991 1309 1228 531 
z
" transform="scale(0.015625)"/>
     </defs>
     <use xlink:href="#DejaVuSans-71"/>
     <use xlink:href="#DejaVuSans-32" x="63.476562"/>
    </g>
   </g>
   <g id="text_4">
    <!-- q3 -->
    <g transform="translate(430.089062 579.11875) scale(0.2 -0.2)">
     <defs>
      <path id="DejaVuSans-33" d="M 2597 2516 
Q 3050 2419 3304 2112 
Q 3559 1806 3559 1356 
Q 3559 666 3084 287 
Q 2609 -91 1734 -91 
Q 1441 -91 1130 -33 
Q 819 25 488 141 
L 488 750 
Q 750 597 1062 519 
Q 1375 441 1716 441 
Q 2309 441 2620 675 
Q 2931 909 2931 1356 
Q 2931 1769 2642 2001 
Q 2353 2234 1838 2234 
L 1294 2234 
L 1294 2753 
L 1863 2753 
Q 2328 2753 2575 2939 
Q 2822 3125 2822 3475 
Q 2822 3834 2567 4026 
Q 2313 4219 1838 4219 
Q 1578 4219 1281 4162 
Q 984 4106 628 3988 
L 628 4550 
Q 988 4650 1302 4700 
Q 1616 4750 1894 4750 
Q 2613 4750 3031 4423 
Q 3450 4097 3450 3541 
Q 3450 3153 3228 2886 
Q 3006 2619 2597 2516 
z
" transform="scale(0.015625)"/>
     </defs>
     <use xlink:href="#DejaVuSans-71"/>
     <use xlink:href="#DejaVuSans-33" x="63.476562"/>
    </g>
   </g>
  </g>
 </g>
 <defs>
  <clipPath id="pc6dc0ce064">
   <rect x="165.6" y="86.4" width="554.4" height="554.4"/>
  </clipPath>
 </defs>
</svg>
